<svg xmlns="http://www.w3.org/2000/svg" width="28.286" height="22" viewBox="0 0 28.286 22"><defs><style>.a{fill:#fff;opacity:0.95;}</style></defs><path class="a" d="M0,51.643A2.358,2.358,0,0,0,2.357,54H25.929a2.358,2.358,0,0,0,2.357-2.357V43H0ZM9.429,48.3a.591.591,0,0,1,.589-.589H16.7a.591.591,0,0,1,.589.589v1.964a.591.591,0,0,1-.589.589H10.018a.591.591,0,0,1-.589-.589Zm-6.286,0a.591.591,0,0,1,.589-.589H7.268a.591.591,0,0,1,.589.589v1.964a.591.591,0,0,1-.589.589H3.732a.591.591,0,0,1-.589-.589ZM28.286,34.357v2.357H0V34.357A2.358,2.358,0,0,1,2.357,32H25.929A2.358,2.358,0,0,1,28.286,34.357Z" transform="translate(0 -32)"/></svg>