<svg xmlns="http://www.w3.org/2000/svg" width="28.286" height="22" viewBox="0 0 28.286 22"><defs><style>.a{fill:#fff;opacity:0.95;}</style></defs><path class="a" d="M9.149,43.108a1.054,1.054,0,0,1-1.08,1.056.71.71,0,0,1-.786-.737,1.065,1.065,0,0,1,1.066-1.08A.737.737,0,0,1,9.149,43.108Zm-5.2-2.382H3.722a.154.154,0,0,0-.157.133L3.354,42.17l.4-.015c.54,0,.958-.074,1.056-.7C4.925,40.8,4.508,40.726,3.953,40.726Zm13.946,0h-.221a.145.145,0,0,0-.157.133l-.206,1.311.393-.015c.638,0,1.08-.147,1.08-.884,0-.521-.471-.545-.889-.545Zm10.386-6.369V51.643A2.358,2.358,0,0,1,25.929,54H2.357A2.358,2.358,0,0,1,0,51.643V34.357A2.358,2.358,0,0,1,2.357,32H25.929A2.358,2.358,0,0,1,28.286,34.357ZM6.3,41.006c0-1.031-.8-1.375-1.7-1.375H2.632a.259.259,0,0,0-.255.231l-.805,5.014a.169.169,0,0,0,.157.2h.933a.313.313,0,0,0,.27-.28l.221-1.306c.049-.354.648-.231.884-.231A2.077,2.077,0,0,0,6.3,41.006Zm4.135.432H9.5c-.187,0-.2.27-.206.4a1.254,1.254,0,0,0-1.164-.491,2.191,2.191,0,0,0-2.121,2.22,1.466,1.466,0,0,0,1.557,1.581,1.913,1.913,0,0,0,1.3-.584,1.312,1.312,0,0,0-.049.3c0,.113.049.2.157.2h.845c.133,0,.246-.142.27-.28l.5-3.158A.167.167,0,0,0,10.435,41.438Zm1.989,4.808L15.552,41.7a.1.1,0,0,0,.025-.083.175.175,0,0,0-.157-.172h-.943a.278.278,0,0,0-.221.123l-1.3,1.915-.54-1.842a.3.3,0,0,0-.27-.2h-.918a.175.175,0,0,0-.157.172c0,.059.958,2.789,1.041,3.05A12.687,12.687,0,0,0,11.1,46.217a.158.158,0,0,0,.157.157H12.2A.289.289,0,0,0,12.424,46.246Zm7.823-5.24c0-1.031-.8-1.375-1.7-1.375h-1.95a.27.27,0,0,0-.27.231l-.8,5.009a.175.175,0,0,0,.157.2h1.007a.21.21,0,0,0,.2-.157l.221-1.424c.049-.354.648-.231.884-.231a2.074,2.074,0,0,0,2.254-2.249Zm4.135.432h-.933c-.187,0-.2.27-.211.4a1.231,1.231,0,0,0-1.164-.491,2.191,2.191,0,0,0-2.121,2.22,1.466,1.466,0,0,0,1.557,1.581,1.856,1.856,0,0,0,1.3-.584,2.183,2.183,0,0,0-.049.3c0,.113.049.2.157.2h.85c.133,0,.246-.142.27-.28l.5-3.158A.167.167,0,0,0,24.382,41.438ZM26.714,39.8a.165.165,0,0,0-.157-.172h-.908a.163.163,0,0,0-.157.133l-.8,5.107-.015.025a.174.174,0,0,0,.172.172h.81a.3.3,0,0,0,.255-.28l.8-4.97Zm-4.42,2.544a1.062,1.062,0,0,0-1.066,1.08.72.72,0,0,0,.8.737,1.047,1.047,0,0,0,1.066-1.056A.731.731,0,0,0,22.295,42.347Z" transform="translate(0 -32)"/></svg>