<svg xmlns="http://www.w3.org/2000/svg" width="28.286" height="22" viewBox="0 0 28.286 22"><defs><style>.a{fill:#fff;opacity:0.95;}</style></defs><path class="a" d="M25.929,32H2.357A2.357,2.357,0,0,0,0,34.357V51.643A2.357,2.357,0,0,0,2.357,54H25.929a2.357,2.357,0,0,0,2.357-2.357V34.357A2.357,2.357,0,0,0,25.929,32Zm-5.714,9.188a21.664,21.664,0,0,1-2.672,5.466c-.634,1-1.32,1.958-2.027,2.906a.556.556,0,0,1-.491.289c-1.627-.013-3.255-.007-4.883-.009a1.64,1.64,0,0,1-.227-.038C9.2,45.518,8.485,41.239,7.76,36.9l4.725-.45c.381,3.041.754,6.024,1.129,9.008l.134.03c1.371-2.627,2.983-5.195,1.877-8.465,1.191-.246,2.376-.491,3.562-.73.744-.15.752-.147,1.031.565A6.507,6.507,0,0,1,20.215,41.188Z" transform="translate(0 -32)"/></svg>