<svg xmlns="http://www.w3.org/2000/svg" width="28.286" height="22" viewBox="0 0 28.286 22"><defs><style>.a{fill:#fff;opacity:0.95;}</style></defs><path class="a" d="M25.929,32H2.357A2.357,2.357,0,0,0,0,34.357V51.643A2.357,2.357,0,0,0,2.357,54H25.929a2.357,2.357,0,0,0,2.357-2.357V34.357A2.357,2.357,0,0,0,25.929,32ZM18.095,47.291c0,.552-.082.636-.623.636H15.28V49.27c0,.441-.061.5-.5.5-.393,0-.789,0-1.182,0s-.477-.075-.479-.467c0-.444,0-.889,0-1.378H10.708c-.447,0-.512-.112-.565-.545a2.754,2.754,0,0,1,.758-2.219c1.277-1.527,2.473-3.12,3.7-4.688.06-.077.156-.138.156-.257-.1-.07-.2-.034-.3-.034-1.172,0-2.344,0-3.517,0-.48,0-.576-.1-.577-.589V38.535c0-.387.11-.491.505-.494H13.13V36.764c0-.564,0-.565.578-.565h1.027c.506,0,.536.029.536.522V38.03H17.66a.377.377,0,0,1,.43.416c0,.373,0,.746,0,1.12a.679.679,0,0,1-.209.438l-4.3,5.519c-.043.055-.081.114-.123.173.1.115.223.065.328.065,1.235,0,2.469,0,3.7,0,.514,0,.6.091.606.592Q18.1,46.824,18.095,47.291Z" transform="translate(0 -32)"/></svg>