<svg xmlns="http://www.w3.org/2000/svg" width="65.827" height="92.96" viewBox="0 0 65.827 92.96"><defs><style>.a{fill:#212529;}</style></defs><path class="a" d="M156.249,87.727,177.1,155.06h.214l20.94-67.321c3.889,1.861,7.645,3.672,11.418,5.449.664.313.469.706.315,1.2q-3.108,9.88-6.195,19.767-5.015,15.991-10.035,31.98-3.692,11.766-7.389,23.531c-.554,1.751-1.17,3.485-1.827,5.2a1.929,1.929,0,0,1-.916,1.02c-3.823,1.578-7.678,3.081-11.5,4.651-.835.342-1.131.115-1.382-.7q-6.5-21.177-13.044-42.341-6.052-19.622-12.1-39.245c-.408-1.325-.741-2.674-1.184-3.987-.18-.534-.158-.815.386-1.072C148.543,91.418,152.276,89.625,156.249,87.727Z" transform="translate(-144.312 -87.727)"/></svg>